<?xml version="1.0" encoding="UTF-8"?>
<svg width="752pt" height="752pt" version="1.1" viewBox="0 0 752 752" xmlns="http://www.w3.org/2000/svg">
 <g>
  <path d="m575.57 162.23h-399.14c-7.8477 0-14.207 6.3594-14.207 14.207v399.14c0 7.8438 6.3594 14.207 14.207 14.207h399.14c7.8438 0 14.207-6.3633 14.207-14.207v-399.14c0-7.8477-6.3633-14.207-14.207-14.207zm-14.207 399.18-370.72 0.003906v-370.77h370.72z"/>
  <path d="m227.01 539.2h297.98c7.8477 0 14.211-6.3633 14.211-14.211v-252.04c0-7.8438-6.3633-14.207-14.211-14.207h-297.98c-7.8438 0-14.207 6.3633-14.207 14.207v252.04c0 7.8477 6.3633 14.211 14.207 14.211zm189.86-159.17c-4.8633-6.1602-3.8164-15.098 2.3438-19.961 6.1602-4.8672 15.098-3.8164 19.961 2.3438l26.238 33.152v-0.003906c4.0781 5.1641 4.0781 12.457 0 17.617l-26.238 33.152c-4.8633 6.1602-13.801 7.2109-19.961 2.3438-6.1602-4.8633-7.207-13.801-2.3438-19.961l19.273-24.293zm-64.547 76.484 19.512-108.92-0.003907-0.003906c0.24219-4.0273 2.1836-7.7656 5.3477-10.277 3.1602-2.5117 7.2383-3.5586 11.219-2.8828 3.9805 0.67578 7.4844 3.0156 9.6367 6.4297 2.1523 3.4141 2.75 7.5859 1.6445 11.469l-19.465 108.92c-0.30078 3.9844-2.2656 7.6602-5.4141 10.121-3.1484 2.4609-7.1875 3.4805-11.129 2.8125-3.9414-0.66797-7.418-2.9648-9.5781-6.3281-2.1602-3.3633-2.8008-7.4805-1.7695-11.34zm-65.734-60.902 26.238-33.152h-0.003906c4.8672-6.1602 13.805-7.2109 19.965-2.3438 6.1562 4.8633 7.207 13.801 2.3438 19.961l-19.277 24.344 19.273 24.438 0.003906-0.003907c4.8633 6.1602 3.8125 15.098-2.3438 19.965-6.1602 4.8633-15.098 3.8125-19.965-2.3477l-26.238-33.152 0.003906 0.003906c-4.1328-5.1836-4.1328-12.531 0-17.711z"/>
  <path d="m304.63 224.69c0 9.1797-7.4414 16.625-16.621 16.625-9.1836 0-16.625-7.4453-16.625-16.625 0-9.1797 7.4414-16.621 16.625-16.621 9.1797 0 16.621 7.4414 16.621 16.621"/>
  <path d="m255.52 224.69c0 9.1797-7.4414 16.625-16.625 16.625-9.1797 0-16.621-7.4453-16.621-16.625 0-9.1797 7.4414-16.621 16.621-16.621 9.1836 0 16.625 7.4414 16.625 16.621"/>
 </g>
</svg>
