<?xml version="1.0" standalone="no"?>
<!DOCTYPE svg PUBLIC "-//W3C//DTD SVG 20010904//EN"
 "http://www.w3.org/TR/2001/REC-SVG-20010904/DTD/svg10.dtd">
<svg version="1.0" xmlns="http://www.w3.org/2000/svg"
 width="466.000000pt" height="106.000000pt" viewBox="0 0 466.000000 106.000000"
 preserveAspectRatio="xMidYMid meet">

<g transform="translate(0.000000,106.000000) scale(0.100000,-0.100000)"
fill="#000000" stroke="none">
<path d="M1895 713 c-3 -21 -9 -48 -12 -60 -10 -43 15 -23 41 32 14 31 26 58
26 60 0 3 -11 5 -24 5 -20 0 -25 -7 -31 -37z"/>
<path d="M114 703 c3 -10 28 -114 56 -230 l52 -213 32 0 32 0 24 105 c12 58
26 108 30 110 5 3 16 -30 25 -73 31 -145 28 -137 64 -137 l32 0 55 215 c30
118 54 220 54 227 0 8 -13 13 -35 13 -38 0 -32 13 -76 -162 -12 -49 -25 -88
-30 -88 -5 0 -9 3 -9 8 0 4 -9 59 -20 122 -11 63 -20 116 -20 118 0 2 -17 2
-37 0 l-38 -3 -21 -118 c-12 -65 -24 -120 -27 -124 -8 -7 -9 -4 -42 135 l-27
112 -40 0 c-33 0 -38 -3 -34 -17z"/>
<path d="M647 713 c-9 -8 -9 -228 0 -356 l6 -97 34 0 33 0 0 230 0 230 -33 0
c-19 0 -37 -3 -40 -7z"/>
<path d="M797 713 c-9 -8 -9 -108 0 -301 l6 -152 89 0 88 0 0 35 0 35 -55 0
-55 0 0 195 0 195 -33 0 c-19 0 -37 -3 -40 -7z"/>
<path d="M1057 713 c-4 -3 -7 -107 -7 -230 l0 -223 40 0 39 0 3 108 3 107 44
-80 c71 -129 77 -135 122 -135 21 0 39 1 39 3 0 2 -29 55 -65 118 -36 63 -65
119 -65 124 0 6 23 51 51 100 69 121 68 115 20 115 l-40 0 -53 -97 -53 -98 -3
98 -3 97 -33 0 c-18 0 -36 -3 -39 -7z"/>
<path d="M1410 491 l0 -231 40 0 40 0 -2 228 -3 227 -37 3 -38 3 0 -230z"/>
<path d="M1560 490 l0 -230 35 0 35 0 0 131 c0 71 4 128 8 125 5 -3 33 -62 62
-131 53 -125 53 -125 86 -125 l34 0 0 230 0 230 -35 0 -35 0 0 -136 c0 -76 -4
-133 -9 -130 -5 3 -32 64 -61 136 l-52 130 -34 0 -34 0 0 -230z"/>
<path d="M2071 694 c-34 -28 -54 -84 -44 -123 3 -14 37 -58 74 -97 72 -75 85
-107 53 -138 -19 -19 -67 -21 -94 -3 -17 10 -22 9 -30 -3 -19 -30 -12 -59 18
-66 15 -3 35 -8 44 -10 32 -9 96 16 122 47 52 62 29 140 -64 221 -62 54 -75
98 -37 122 18 13 30 14 50 7 22 -9 28 -7 37 9 24 44 8 60 -60 60 -27 0 -48 -8
-69 -26z"/>
<path d="M2470 708 c0 -7 23 -111 52 -230 l53 -218 32 0 c35 0 33 -5 58 115
10 44 21 87 25 95 11 19 13 13 35 -95 25 -120 22 -115 59 -115 32 0 33 2 45
57 7 32 32 132 56 222 24 91 41 169 39 173 -7 11 -62 10 -69 -1 -3 -6 -17 -56
-31 -113 -30 -117 -40 -142 -48 -118 -3 8 -14 65 -24 125 l-18 110 -36 3 c-36
3 -36 3 -46 -45 -6 -26 -16 -83 -23 -125 -7 -43 -16 -78 -20 -78 -4 0 -20 55
-36 123 l-28 122 -38 3 c-25 2 -37 -1 -37 -10z"/>
<path d="M3000 495 l0 -225 23 -5 c12 -3 54 -5 92 -3 l70 3 3 37 3 37 -58 3
-58 3 0 60 0 60 55 5 55 5 0 35 c0 29 -3 35 -20 33 -11 -2 -37 0 -57 3 -33 5
-38 9 -38 32 0 64 8 72 66 72 l54 0 0 35 0 35 -95 0 -95 0 0 -225z"/>
<path d="M3265 708 c-3 -7 -4 -110 -3 -228 l3 -215 67 1 c78 1 113 19 135 72
19 47 9 116 -21 147 l-23 23 20 31 c27 44 19 113 -17 149 -21 21 -37 27 -91
30 -49 3 -66 1 -70 -10z m123 -111 c2 -27 -2 -39 -20 -51 -12 -9 -26 -16 -30
-16 -10 0 -11 114 -1 123 15 15 48 -21 51 -56z m-9 -136 c9 -6 15 -27 15 -57
1 -41 -2 -50 -23 -60 -14 -7 -29 -11 -33 -8 -10 6 -11 118 -1 127 9 9 25 8 42
-2z"/>
<path d="M3601 694 c-34 -28 -54 -84 -44 -123 3 -14 37 -58 74 -97 72 -75 85
-107 53 -138 -19 -19 -67 -21 -94 -3 -17 10 -22 9 -30 -3 -19 -30 -12 -59 18
-66 15 -3 35 -8 44 -10 32 -9 96 16 122 47 52 62 29 140 -64 221 -62 54 -75
98 -37 122 18 13 30 14 50 7 22 -9 28 -7 37 9 24 44 8 60 -60 60 -27 0 -48 -8
-69 -26z"/>
<path d="M3840 490 l0 -230 40 0 40 0 0 230 0 230 -40 0 -40 0 0 -230z"/>
<path d="M3990 685 c0 -34 1 -35 40 -35 l40 0 0 -195 0 -195 35 0 35 0 0 195
0 195 40 0 c39 0 40 1 40 35 l0 35 -115 0 -115 0 0 -35z"/>
<path d="M4297 713 c-4 -3 -7 -104 -7 -224 0 -188 2 -218 16 -223 9 -3 48 -6
89 -6 81 0 102 12 91 55 -6 23 -11 25 -61 25 l-55 0 0 64 0 65 53 3 c52 3 52
3 55 39 l3 36 -53 -1 -53 -1 -3 53 -3 52 60 0 c53 0 61 2 61 19 0 47 -8 51
-99 51 -48 0 -91 -3 -94 -7z"/>
</g>
</svg>
